<?xml version="1.0" standalone="no"?>
<!DOCTYPE svg PUBLIC "-//W3C//DTD SVG 20010904//EN"
 "http://www.w3.org/TR/2001/REC-SVG-20010904/DTD/svg10.dtd">
<svg version="1.0" xmlns="http://www.w3.org/2000/svg"
 width="250.000000pt" height="250.000000pt" viewBox="0 0 250.000000 250.000000"
 preserveAspectRatio="xMidYMid meet">
<metadata>
Created by potrace 1.13, written by Peter Selinger 2001-2015
</metadata>
<g transform="translate(0.000000,250.000000) scale(0.100000,-0.100000)"
fill="#FFFFFF" stroke="none">
<path d="M647 2191 c-329 -158 -599 -292 -598 -297 0 -5 95 -54 211 -108 l210
-100 0 -646 0 -645 388 -186 387 -186 3 640 c1 353 6 645 10 649 11 11 752
369 772 373 31 6 431 200 431 209 1 9 -1198 587 -1211 585 -3 -1 -274 -130
-603 -288z"/>
</g>
</svg>
